<svg xmlns="http://www.w3.org/2000/svg" width="72" height="72" fill="none" viewBox="0 0 72 72"><rect width="72" height="72" fill="#fff"/><path fill="#231F20" d="M11.9656 21.0394L15.3949 41.284H15.4961L19.1378 21.0394H27.3015L31.186 41.284H31.2973L34.8278 21.0394H42L35.718 49.5H27.1396L23.2753 29.2751H23.164L19.5627 49.5H10.863L4.5 21L11.9656 21.0394Z"/><path fill="#231F20" d="M59.4783 21.6954V25.4392H59.5866C60.2641 24.1988 61.1876 23.1027 62.3031 22.2151C63.4134 21.3915 64.7782 20.9636 66.1713 21.0024H66.8307C67.0557 21.0152 67.2794 21.0441 67.5 21.089V27.9031C67.1161 27.9031 66.7224 27.8357 66.3583 27.8261C65.9941 27.8164 65.6004 27.8261 65.2067 27.8261C64.568 27.8328 63.9328 27.9201 63.3169 28.0859C62.6844 28.2571 62.0925 28.5481 61.5748 28.9425C61.0335 29.3573 60.5959 29.8872 60.2953 30.492C59.9595 31.2369 59.7981 32.0458 59.8228 32.8596V49.5H52.5V21.6954H59.4783Z"/><path fill="url(#paint0_linear)" d="M41.8591 21.6565V27.5399H41.9825C42.9181 25.5414 44.3707 23.8144 46.1977 22.5285C48.087 21.4006 50.29 20.8751 52.5 21.0251V25.8962C50.8657 25.8557 49.2378 26.1105 47.6988 26.6479C46.4592 27.0976 45.3634 27.8582 44.5219 28.8529C43.6659 29.8831 43.0612 31.0895 42.7536 32.381C42.3617 33.9419 42.1751 35.545 42.1984 37.1518V49.5H37.5V21.6565H41.8591Z"/><defs><linearGradient id="paint0_linear" x1="4404.6" x2="4623.9" y1="6884.09" y2="6884.09" gradientUnits="userSpaceOnUse"><stop offset=".24" stop-color="#C3D939"/><stop offset="1" stop-color="#80C342"/></linearGradient></defs></svg>
