<svg width="1080" height="1080" viewBox="0 0 1080 1080" fill="none" xmlns="http://www.w3.org/2000/svg">
<path d="M388.125 405H421.875V438.75H388.125V405Z" fill="#A3C460"/>
<path d="M286.875 405H320.625V438.75H286.875V405Z" fill="#A3C460"/>
<path d="M101.25 101.25H135V135H101.25V101.25Z" fill="#A3C460"/>
<path d="M168.75 101.25H202.5V135H168.75V101.25Z" fill="#A3C460"/>
<path d="M236.25 101.25H270V135H236.25V101.25Z" fill="#A3C460"/>
<path d="M956.981 578.644C953.763 575.535 949.474 573.783 945 573.75H810V471.825C815.569 472.162 821.306 472.5 826.875 472.5C885.057 472.5 940.856 449.387 981.997 408.247C1023.14 367.106 1046.25 311.307 1046.25 253.125C1046.25 194.943 1023.14 139.144 981.997 98.0035C940.856 56.8627 885.057 33.75 826.875 33.75C811.445 33.747 796.058 35.3875 780.975 38.6438C774.238 35.3996 766.852 33.7264 759.375 33.75H84.375C70.9607 33.7901 58.1073 39.1366 48.622 48.622C39.1366 58.1073 33.7901 70.9607 33.75 84.375V759.375C33.7901 772.789 39.1366 785.643 48.622 795.128C58.1073 804.613 70.9607 809.96 84.375 810H101.25V1029.38C101.25 1033.85 103.028 1038.14 106.193 1041.31C109.357 1044.47 113.649 1046.25 118.125 1046.25H590.625C595.101 1046.25 599.393 1044.47 602.557 1041.31C605.722 1038.14 607.5 1033.85 607.5 1029.38V810H641.25V995.625C641.29 1009.04 646.637 1021.89 656.122 1031.38C665.607 1040.86 678.461 1046.21 691.875 1046.25H995.625C1009.04 1046.21 1021.89 1040.86 1031.38 1031.38C1040.86 1021.89 1046.21 1009.04 1046.25 995.625V675C1046.22 670.526 1044.46 666.237 1041.36 663.019L956.981 578.644ZM945 614.419L1005.58 675H961.875C957.399 675 953.107 673.222 949.943 670.057C946.778 666.893 945 662.601 945 658.125V614.419ZM826.875 67.5C855.687 67.4468 884.116 74.1014 909.911 86.9369C935.706 99.7724 958.159 118.436 975.493 141.451C992.827 164.466 1004.56 191.2 1009.78 219.537C1014.99 247.873 1013.54 277.034 1005.53 304.711C997.523 332.389 983.183 357.822 963.645 378.998C944.108 400.174 919.909 416.511 892.965 426.716C866.02 436.921 837.07 440.714 808.406 437.794C779.743 434.874 752.152 425.322 727.819 409.894C725.09 408.166 721.935 407.231 718.706 407.194C716.915 407.203 715.141 407.546 713.475 408.206L651.038 428.963L671.794 366.525C672.613 364.162 672.887 361.644 672.595 359.16C672.303 356.676 671.452 354.29 670.106 352.181C652.305 324.134 642.368 291.819 641.336 258.616C640.303 225.413 648.213 192.543 664.237 163.444C680.261 134.345 703.811 110.087 732.423 93.2088C761.034 76.3302 793.656 67.451 826.875 67.5V67.5ZM67.5 84.375C67.5 79.8995 69.2779 75.6073 72.4426 72.4426C75.6073 69.2779 79.8995 67.5 84.375 67.5H710.437C672.004 91.5772 641.946 126.939 624.375 168.75H455.119C426.099 146.848 390.732 134.999 354.375 134.999C318.018 134.999 282.651 146.848 253.631 168.75H67.5V84.375ZM489.375 438.75V371.25H523.125V438.75H489.375ZM506.25 472.5C506.25 476.976 504.472 481.268 501.307 484.432C498.143 487.597 493.851 489.375 489.375 489.375H479.419C481.628 483.873 483.488 478.236 484.987 472.5H506.25ZM489.375 337.5C489.375 301.696 475.152 267.358 449.834 242.041C424.517 216.723 390.179 202.5 354.375 202.5C318.571 202.5 284.233 216.723 258.916 242.041C233.598 267.358 219.375 301.696 219.375 337.5V303.75C219.375 267.946 233.598 233.608 258.916 208.291C284.233 182.973 318.571 168.75 354.375 168.75C390.179 168.75 424.517 182.973 449.834 208.291C475.152 233.608 489.375 267.946 489.375 303.75V337.5ZM410.231 523.125C394.984 533.244 377.276 539.038 358.996 539.889C340.716 540.74 322.547 536.617 306.425 527.959C290.303 519.3 276.831 506.431 267.445 490.721C258.059 475.011 253.11 457.05 253.125 438.75V388.125H309.319C342.174 388.086 374.137 377.432 400.444 357.75L413.269 348.131L415.125 353.531C418.056 362.39 423.399 370.257 430.553 376.248C437.707 382.24 446.389 386.119 455.625 387.45V438.75C455.606 456.534 450.891 473.998 441.956 489.375H354.375V523.125H410.231ZM440.438 642.094L428.287 672.806L397.575 667.069L390.487 645.806L408.712 627.75L440.438 642.094ZM364.331 624.375H344.419L320.625 600.581V569.363C342.745 575.213 366.005 575.213 388.125 569.363V600.581L364.331 624.375ZM368.888 687.319L354.375 701.831L339.862 687.319L349.65 658.125H359.1L368.888 687.319ZM318.263 645.806L311.175 667.069L280.463 672.806L268.312 642.094L300.038 627.75L318.263 645.806ZM447.019 342.9L437.906 315.225C437.03 312.709 435.576 310.434 433.659 308.583C431.743 306.732 429.419 305.357 426.874 304.569C424.329 303.781 421.634 303.602 419.007 304.046C416.381 304.49 413.895 305.544 411.75 307.125L380.194 330.75C359.723 346.04 334.869 354.324 309.319 354.375H253.125V337.5C253.125 310.647 263.792 284.893 282.78 265.905C301.768 246.917 327.522 236.25 354.375 236.25C381.228 236.25 406.982 246.917 425.97 265.905C444.958 284.893 455.625 310.647 455.625 337.5V352.35C451.628 350.45 448.537 347.057 447.019 342.9V342.9ZM101.25 757.181V776.25H84.375C79.8995 776.25 75.6073 774.472 72.4426 771.307C69.2779 768.143 67.5 763.851 67.5 759.375V202.5H219.713C197.622 231.635 185.652 267.187 185.625 303.75V337.5C176.682 337.527 168.113 341.091 161.79 347.415C155.466 353.738 151.902 362.307 151.875 371.25V438.75C151.902 447.693 155.466 456.262 161.79 462.585C168.113 468.909 176.682 472.473 185.625 472.5H223.763C228.303 489.811 236.215 506.055 247.045 520.302C257.875 534.549 271.41 546.519 286.875 555.525V596.7L170.438 649.519C149.822 658.976 132.348 674.143 120.086 693.224C107.824 712.305 101.287 734.5 101.25 757.181V757.181ZM219.375 371.25V438.75H185.625V371.25H219.375ZM236.25 1012.5V776.25H202.5V1012.5H135V757.181C135.01 740.967 139.674 725.097 148.439 711.456C157.203 697.816 169.7 686.978 184.444 680.231L237.6 656.1L254.306 698.119C255.557 701.259 257.721 703.951 260.519 705.846C263.317 707.742 266.62 708.753 270 708.75C271.02 708.721 272.036 708.608 273.038 708.413L307.294 702C307.703 702.647 308.154 703.267 308.644 703.856L316.575 711.619L287.044 959.85C286.733 962.389 286.996 964.966 287.814 967.39C288.632 969.814 289.983 972.024 291.769 973.856L330.581 1012.5H236.25ZM321.469 955.8L347.119 740.644C349.346 741.855 351.84 742.489 354.375 742.489C356.91 742.489 359.404 741.855 361.631 740.644L387.281 955.8L354.375 988.706L321.469 955.8ZM573.75 1012.5H506.25V776.25H472.5V1012.5H378.169L416.981 973.856C418.767 972.024 420.118 969.814 420.936 967.39C421.754 964.966 422.017 962.389 421.706 959.85L392.175 711.619L400.106 703.856C400.596 703.267 401.047 702.647 401.456 702L435.712 708.413C436.714 708.608 437.73 708.721 438.75 708.75C442.13 708.753 445.433 707.742 448.231 705.846C451.029 703.951 453.193 701.259 454.444 698.119L471.15 656.1L524.306 680.231C539.05 686.978 551.547 697.816 560.311 711.456C569.076 725.097 573.74 740.967 573.75 757.181V1012.5ZM641.25 624.375V776.25H607.5V757.181C607.463 734.5 600.926 712.305 588.664 693.224C576.402 674.143 558.928 658.976 538.312 649.519L421.875 596.7V555.525C436.352 547.13 449.165 536.148 459.675 523.125H489.375C502.789 523.085 515.643 517.738 525.128 508.253C534.613 498.768 539.96 485.914 540 472.5V467.775C545.101 464.83 549.342 460.602 552.303 455.51C555.263 450.418 556.839 444.64 556.875 438.75V371.25C556.848 362.307 553.284 353.738 546.96 347.415C540.637 341.091 532.068 337.527 523.125 337.5V303.75C523.098 267.187 511.128 231.635 489.037 202.5H613.575C600.359 257.164 608.89 314.824 637.369 363.319L608.344 450.225C607.485 452.767 607.245 455.477 607.643 458.131C608.042 460.784 609.067 463.305 610.635 465.482C612.202 467.66 614.266 469.433 616.656 470.653C619.046 471.874 621.692 472.507 624.375 472.5C626.205 472.467 628.022 472.183 629.775 471.656L716.681 442.631C735.275 453.416 755.343 461.432 776.25 466.425V573.75H691.875C678.461 573.79 665.607 579.137 656.122 588.622C646.637 598.107 641.29 610.961 641.25 624.375V624.375ZM1012.5 995.625C1012.5 1000.1 1010.72 1004.39 1007.56 1007.56C1004.39 1010.72 1000.1 1012.5 995.625 1012.5H691.875C687.399 1012.5 683.107 1010.72 679.943 1007.56C676.778 1004.39 675 1000.1 675 995.625V624.375C675 619.899 676.778 615.607 679.943 612.443C683.107 609.278 687.399 607.5 691.875 607.5H911.25V658.125C911.29 671.539 916.637 684.393 926.122 693.878C935.607 703.363 948.461 708.71 961.875 708.75H1012.5V995.625Z" fill="#A3C460"/>
<path d="M742.5 742.5H945V776.25H742.5V742.5Z" fill="#A3C460"/>
<path d="M742.5 810H945V843.75H742.5V810Z" fill="#A3C460"/>
<path d="M742.5 877.5H945V911.25H742.5V877.5Z" fill="#A3C460"/>
<path d="M742.5 675H843.75V708.75H742.5V675Z" fill="#A3C460"/>
<path d="M759.375 388.125H894.375C907.802 388.125 920.678 382.791 930.172 373.297C939.666 363.803 945 350.927 945 337.5V185.625C945 181.149 943.222 176.857 940.057 173.693C936.893 170.528 932.601 168.75 928.125 168.75H877.5V151.875C877.5 138.448 872.166 125.572 862.672 116.078C853.178 106.584 840.302 101.25 826.875 101.25C813.448 101.25 800.572 106.584 791.078 116.078C781.584 125.572 776.25 138.448 776.25 151.875V168.75H725.625C721.149 168.75 716.857 170.528 713.693 173.693C710.528 176.857 708.75 181.149 708.75 185.625V337.5C708.75 350.927 714.084 363.803 723.578 373.297C733.072 382.791 745.948 388.125 759.375 388.125ZM810 151.875C810 147.399 811.778 143.107 814.943 139.943C818.107 136.778 822.399 135 826.875 135C831.351 135 835.643 136.778 838.807 139.943C841.972 143.107 843.75 147.399 843.75 151.875V168.75H810V151.875ZM742.5 202.5H776.25V236.25H810V202.5H843.75V236.25H877.5V202.5H911.25V337.5C911.25 341.976 909.472 346.268 906.307 349.432C903.143 352.597 898.851 354.375 894.375 354.375H759.375C754.899 354.375 750.607 352.597 747.443 349.432C744.278 346.268 742.5 341.976 742.5 337.5V202.5Z" fill="#A3C460"/>
</svg>
