<svg width="1080" height="1080" viewBox="0 0 1080 1080" fill="none" xmlns="http://www.w3.org/2000/svg">
<path d="M1051.85 751.781C1044.33 736.069 1031.16 723.766 1014.98 717.318C998.794 710.871 980.776 710.752 964.507 716.985L813.814 771.829C810.637 759.235 803.893 747.825 794.393 738.968C784.892 730.111 773.038 724.183 760.252 721.896L556.689 686.002C512.931 678.303 467.917 682.242 426.161 697.427L399.938 707.062C375.295 716.081 352.013 728.455 330.75 743.833L327.021 733.59C326.266 731.505 325.109 729.59 323.614 727.953C322.12 726.316 320.317 724.989 318.31 724.049C316.302 723.109 314.129 722.573 311.915 722.473C309.7 722.373 307.488 722.71 305.404 723.465L115.104 792.652C113.02 793.407 111.104 794.564 109.467 796.059C107.83 797.553 106.504 799.356 105.563 801.363C104.623 803.371 104.088 805.544 103.987 807.758C103.887 809.973 104.224 812.185 104.979 814.269L25.6669 843.126L37.2094 874.834L116.522 845.977L185.355 1035.11L217.063 1023.57L142.543 818.606L301.168 760.894L387.754 998.831L347.254 1013.6L358.796 1045.29L415.125 1024.7C417.211 1023.95 419.129 1022.79 420.767 1021.29C422.406 1019.8 423.733 1017.99 424.674 1015.98C425.614 1013.97 426.149 1011.8 426.248 1009.58C426.347 1007.37 426.008 1005.15 425.25 1003.07L419.479 987.204L458.291 973.063C482.693 964.145 508.701 960.477 534.617 962.297L614.672 967.849C645.298 970.051 676.043 965.72 704.869 955.142L1013.34 842.872C1022.07 839.7 1030.05 834.761 1036.78 828.365C1043.51 821.97 1048.84 814.254 1052.46 805.702C1056.07 797.149 1057.88 787.943 1057.77 778.66C1057.66 769.376 1055.64 760.215 1051.84 751.747L1051.85 751.781ZM1020.84 793.682C1018.98 797.707 1016.34 801.324 1013.08 804.322C1009.81 807.32 1005.99 809.64 1001.82 811.147L693.343 923.434C668.947 932.371 642.933 936.034 617.017 934.183L536.962 928.631C506.344 926.491 475.618 930.821 446.782 941.338L407.869 955.496L342.816 776.756C363.578 760.553 386.753 747.706 411.497 738.686L437.687 729.152C473.882 715.986 512.902 712.57 550.834 719.246L754.313 755.139C758.723 755.858 762.947 757.446 766.739 759.81C770.531 762.174 773.816 765.267 776.403 768.911C778.99 772.554 780.828 776.675 781.809 781.035C782.791 785.394 782.897 789.905 782.122 794.306C781.347 798.707 779.705 802.91 777.293 806.671C774.88 810.433 771.745 813.677 768.068 816.217C764.391 818.757 760.247 820.542 755.875 821.468C751.504 822.393 746.992 822.442 742.601 821.61L559.794 789.379L553.922 822.622L736.729 854.854C752.928 857.721 769.616 854.546 783.63 845.931C797.645 837.315 808.012 823.858 812.768 808.11L975.982 748.693C984.244 745.454 993.412 745.386 1001.72 748.501C1010.03 751.617 1016.89 757.696 1020.99 765.568C1022.97 769.993 1023.99 774.792 1023.96 779.641C1023.94 784.491 1022.87 789.279 1020.84 793.682V793.682Z" fill="#A3C460"/>
<path d="M774.364 523.406C777.762 530.856 782.142 524.419 782.142 524.419L787.238 516.969C789.95 513.93 785.897 512.231 785.897 512.231H771.98C767.242 512.559 769.954 517.327 769.954 517.327L774.364 523.406Z" fill="#A3C460"/>
<path d="M708.953 492.801C692.295 492.801 678.796 506.301 678.796 522.959C678.796 538.991 691.312 552.103 707.076 553.057C701.593 550.703 697.421 538.276 697.421 523.287C697.421 506.629 702.576 493.129 708.953 493.129C715.301 493.129 720.486 506.629 720.486 523.287C720.486 538.276 716.314 550.703 710.831 553.057C726.595 552.074 739.111 538.991 739.111 522.959C739.111 506.301 725.612 492.801 708.953 492.801Z" fill="#A3C460"/>
<path d="M842.964 492.801C826.306 492.801 812.806 506.301 812.806 522.959C812.806 538.991 825.322 552.103 841.087 553.057C835.603 550.703 831.431 538.276 831.431 523.287C831.431 506.629 836.587 493.129 842.964 493.129C849.311 493.129 854.497 506.629 854.497 523.287C854.497 538.276 850.325 550.703 844.841 553.057C860.635 552.074 873.122 538.991 873.122 522.959C873.151 506.301 859.622 492.801 842.964 492.801Z" fill="#A3C460"/>
<path d="M896.008 273.98H659.992C647.804 273.98 637.91 283.874 637.91 296.062V543.938C637.91 556.126 647.804 566.02 659.992 566.02H896.008C908.196 566.02 918.09 556.126 918.09 543.938V296.062C918.09 283.874 908.196 273.98 896.008 273.98ZM707.553 319.455C709.669 314.24 715.182 311.111 720.635 312.184C725.612 313.167 728.919 316.177 730.082 321.094C731.274 326.041 729.664 330.213 725.671 333.431C725.343 333.699 724.986 334.146 724.926 334.534C724.36 338.914 724.36 343.295 724.777 347.675C724.956 349.642 725.284 351.579 725.522 353.576H725.612C726.267 356.496 728.174 364.453 730.26 368.595C730.26 368.595 730.26 368.595 730.26 368.625C733.717 376.164 738.366 382.899 744.773 388.293C760.865 401.852 778.834 405.13 798.264 396.667C812.002 390.677 821.031 379.859 826.753 366.151C826.753 366.151 830.388 356.556 830.895 350.298C831.521 345.351 831.61 340.404 831.163 335.398C831.074 334.385 830.686 333.729 829.882 333.103C825.561 329.676 824.279 323.627 826.723 318.68C829.167 313.763 834.709 311.051 839.984 312.362C845.05 313.614 848.09 316.892 849.103 321.988C849.997 326.547 847.821 331.315 843.739 333.938C843.143 334.325 843.053 334.653 843.053 335.338C843.083 339.868 843.053 344.368 842.964 348.897C842.934 350.447 842.666 351.996 842.487 353.695C842.487 353.695 840.938 361.354 838.822 367.701C835.216 377.833 829.703 386.773 822.015 394.372C812.389 403.938 800.946 410.077 787.506 412.252C785.51 412.58 783.513 412.788 781.516 413.027H774.424C774.156 412.967 773.888 412.878 773.619 412.848C762.087 412.014 751.627 408.14 742.27 401.435C730.082 392.673 721.767 381.022 716.85 366.926C715.807 363.916 714.139 358.612 713.453 353.576C713.423 353.129 713.423 352.831 713.364 352.533C712.559 346.93 712.38 341.298 712.857 335.666C712.947 334.712 712.708 334.265 711.933 333.759C707.255 330.63 705.437 324.67 707.553 319.455ZM916.123 541.405C916.123 557.438 903.518 562.325 898.154 563.696H658.77C636.957 563.219 640.354 538.991 640.354 538.991V462.882C647.148 423.636 673.313 447.863 673.313 447.863L696.08 473.074C713.513 487.139 739.707 487.139 739.707 487.139H832.266C850.682 487.139 869.099 469.706 869.099 469.706L891.866 445.479C913.679 429 916.093 474.057 916.093 474.057L916.123 541.405Z" fill="#A3C460"/>
<path d="M810.363 550.613C780.324 563.219 781.785 534.611 781.785 534.611H774.99C774.513 561.759 747.366 551.567 747.366 551.567C742.508 550.107 746.412 555.441 746.412 555.441C769.179 565.633 778.894 548.647 778.894 548.647C792.453 565.126 809.916 556.395 809.916 556.395C816.174 554.487 810.363 550.613 810.363 550.613Z" fill="#A3C460"/>
<g clip-path="url(#clip0)">
<path d="M348.35 435.053C348.35 435.053 348.809 443.165 380.959 438.421C380.959 438.421 377.093 526.673 383.371 555.495C383.371 555.495 380.959 563.647 373.302 535.323C365.649 507.003 363.697 500.307 360.368 498.852C357.04 497.397 341.65 507.501 333.997 523.808C326.344 540.11 321.98 559.78 321.98 559.78C321.98 559.78 316.892 563.647 316.778 557.369C316.699 551.132 321.023 518.522 321.023 518.522C321.023 518.522 312.184 541.371 310.654 553.313C309.121 565.291 306.022 554.539 306.634 550.862C307.247 547.19 310.804 530.768 306.555 520.973C306.555 520.973 302.653 519.174 277.128 557.638C277.128 557.638 274.982 563.378 272.495 560.966C270.044 558.555 272.804 554.883 275.251 548.719C277.701 542.561 288.493 517.336 291.861 514.236C291.861 514.236 281.722 516.075 276.167 513.319C270.617 510.565 263.846 505.318 268.171 484.996C269.894 476.844 270.084 484.881 269.396 490.854C267.981 503.48 273.068 510.675 282.714 508.571C292.857 506.39 298.024 498.278 298.024 498.278C314.797 477.205 331.574 456.127 348.35 435.053V435.053ZM443.801 353C336.832 372.212 301.736 359.238 301.736 359.238C301.736 359.238 299.898 356.826 297.487 355.87C295.075 354.913 292.17 363.523 294.577 364.977C296.989 366.432 301.696 364.021 301.696 364.021C332.352 376.994 440.433 359.238 440.433 359.238C431.744 374.085 396.763 412.474 390.027 418.712C383.292 424.95 366.53 427.859 352.137 424.222C337.748 420.586 277.815 399.539 266.755 394.752C255.694 389.929 224.082 371.714 221.211 366.931C218.342 362.108 215.432 362.606 215.432 362.606C220.256 371.255 220.216 397.164 200.083 404.821C179.955 412.513 163 400.033 163 400.033L188.604 337.654C189.56 325.174 194.803 325.636 197.712 325.174C200.621 324.715 210.689 329.04 218.841 334.78C226.992 340.559 226.493 337.191 226.493 337.191C226.493 337.191 310.919 299.34 372.804 294.517C434.693 289.734 454.403 300.107 454.403 300.107C432.168 298.842 414.407 308.258 416.474 314.651C417.813 318.707 424.32 319.319 434.693 319.434C457.08 319.738 467.796 308.872 467.796 308.872C475.488 322.304 443.801 353 443.801 353ZM305.907 317.176C306.1 310.132 296.989 311.777 295.269 316.026C292.778 322.189 292.858 332.178 298.827 331.49C304.416 330.838 305.642 326.13 305.907 317.176V317.176Z" fill="#A3C460"/>
</g>
<defs>
<clipPath id="clip0">
<rect width="306" height="306" fill="white" transform="translate(163 267)"/>
</clipPath>
</defs>
</svg>
