<svg width="1080" height="1080" viewBox="0 0 1080 1080" fill="none" xmlns="http://www.w3.org/2000/svg">
<g clip-path="url(#clip0)">
<path d="M444.003 348.006H340.003V364.006H444.003V348.006Z" fill="black"/>
<path d="M444.003 380.006H340.003V396.006H444.003V380.006Z" fill="black"/>
<path d="M412.003 412.006H340.003V428.006H412.003V412.006Z" fill="black"/>
<path d="M412.003 444.006H340.003V460.006H412.003V444.006Z" fill="black"/>
<path d="M780.003 764.006H300.003V780.006H780.003V764.006Z" fill="black"/>
<path d="M763.163 368.43L731.163 304.43C729.19 300.476 724.387 298.87 720.433 300.843C720.431 300.844 720.429 300.845 720.427 300.846L656.427 332.846C652.473 334.821 650.868 339.628 652.843 343.582C654.818 347.536 659.625 349.141 663.579 347.166L709.931 324.006L697.283 360.118C641.69 518.446 498.501 629.522 331.323 644.006L332.683 660.006C506.16 644.978 654.737 529.701 712.395 365.398L725.307 328.502L748.843 375.582C750.818 379.536 755.625 381.141 759.579 379.166C763.534 377.191 765.138 372.385 763.163 368.43Z" fill="black"/>
<path d="M396.003 684.006H340.003C335.585 684.006 332.003 687.588 332.003 692.006V740.006C332.003 744.424 335.585 748.006 340.003 748.006H396.003C400.421 748.006 404.003 744.424 404.003 740.006V692.006C404.003 687.588 400.421 684.006 396.003 684.006ZM388.003 732.006H348.003V700.006H388.003V732.006Z" fill="black"/>
<path d="M484.003 660.006H428.003C423.585 660.006 420.003 663.588 420.003 668.006V740.006C420.003 744.424 423.585 748.006 428.003 748.006H484.003C488.421 748.006 492.003 744.424 492.003 740.006V668.006C492.003 663.588 488.421 660.006 484.003 660.006ZM476.003 732.006H436.003V676.006H476.003V732.006Z" fill="black"/>
<path d="M572.003 620.006H516.003C511.585 620.006 508.003 623.588 508.003 628.006V740.006C508.003 744.424 511.585 748.006 516.003 748.006H572.003C576.421 748.006 580.003 744.424 580.003 740.006V628.006C580.003 623.588 576.421 620.006 572.003 620.006ZM564.003 732.006H524.003V636.006H564.003V732.006Z" fill="black"/>
<path d="M660.003 564.006H604.003C599.585 564.006 596.003 567.588 596.003 572.006V740.006C596.003 744.424 599.585 748.006 604.003 748.006H660.003C664.421 748.006 668.003 744.424 668.003 740.006V572.006C668.003 567.588 664.421 564.006 660.003 564.006ZM652.003 732.006H612.003V580.006H652.003V732.006Z" fill="black"/>
<path d="M748.003 452.006H692.003C687.585 452.006 684.003 455.588 684.003 460.006V740.006C684.003 744.424 687.585 748.006 692.003 748.006H748.003C752.421 748.006 756.003 744.424 756.003 740.006V460.006C756.003 455.588 752.421 452.006 748.003 452.006ZM740.003 732.006H700.003V468.006H740.003V732.006Z" fill="black"/>
</g>
<defs>
<clipPath id="clip0">
<rect width="480.006" height="480.006" fill="white" transform="translate(300 300)"/>
</clipPath>
</defs>
</svg>
