<svg width="1080" height="1080" viewBox="0 0 1080 1080" fill="none" xmlns="http://www.w3.org/2000/svg">
<g clip-path="url(#clip0)">
<path d="M497.333 796C380 796 284 700 284 582.667C284 465.333 380 369.333 497.333 369.333C614.667 369.333 710.667 465.333 710.667 582.667C710.667 700 614.667 796 497.333 796ZM497.333 390.667C390.667 390.667 305.333 476 305.333 582.667C305.333 689.333 390.667 774.667 497.333 774.667C604 774.667 689.333 689.333 689.333 582.667C689.333 476 604 390.667 497.333 390.667Z" fill="black"/>
<path d="M497.333 721.333C420.533 721.333 358.667 659.467 358.667 582.667C358.667 505.867 420.533 444 497.333 444C574.133 444 636 505.867 636 582.667C636 659.467 574.133 721.333 497.333 721.333ZM497.333 465.333C433.333 465.333 380 518.667 380 582.667C380 646.667 433.333 700 497.333 700C561.333 700 614.667 646.667 614.667 582.667C614.667 518.667 561.333 465.333 497.333 465.333Z" fill="black"/>
<path d="M497.333 646.667C461.067 646.667 433.333 618.933 433.333 582.667C433.333 546.4 461.067 518.667 497.333 518.667C533.6 518.667 561.333 546.4 561.333 582.667C561.333 618.933 533.6 646.667 497.333 646.667ZM497.333 540C473.867 540 454.667 559.2 454.667 582.667C454.667 606.133 473.867 625.333 497.333 625.333C520.8 625.333 540 606.133 540 582.667C540 559.2 520.8 540 497.333 540Z" fill="black"/>
<path d="M497.333 593.333C495.2 593.333 490.933 593.333 488.8 591.2C484.533 586.933 484.533 580.533 488.8 576.267L648.8 416.267C653.067 412 659.467 412 663.733 416.267C668 420.533 668 426.933 663.733 431.2L503.733 591.2C503.733 593.333 499.467 593.333 497.333 593.333Z" fill="black"/>
<path d="M710.667 433.333H657.333C650.933 433.333 646.667 429.067 646.667 422.667V369.333C646.667 367.2 648.8 362.933 648.8 360.8L723.467 286.133C727.733 284 732 284 736.267 284C740.533 286.133 742.667 290.4 742.667 294.667V337.333H785.333C789.6 337.333 793.867 339.467 796 343.733C796 348 796 352.267 793.867 356.533L719.2 431.2C717.066 431.2 712.8 433.333 710.667 433.333ZM668 412H706.4L759.733 358.667H732C725.6 358.667 721.333 354.4 721.333 348V320.267L668 373.6V412Z" fill="black"/>
</g>
<defs>
<clipPath id="clip0">
<rect width="512" height="512" fill="white" transform="translate(284 284)"/>
</clipPath>
</defs>
</svg>
