<svg width="1080" height="1080" viewBox="0 0 1080 1080" fill="none" xmlns="http://www.w3.org/2000/svg">
<path d="M71.7441 573.257C103.018 606.673 145.384 623.557 187.855 623.555C195.753 623.555 628.785 585.816 628.785 585.816V495.383L440.618 447.275L456.037 432.944C477.488 413.005 495.413 389.442 508.011 362.982C522.848 331.817 530.696 297.493 530.696 262.196C530.696 133.035 425.811 27.9559 296.893 27.9559C167.975 27.9559 63.09 133.037 63.09 262.198C63.09 291.895 68.4934 320.6 79.1793 347.776L78.9854 347.956C14.9923 408.071 11.7416 509.14 71.7441 573.257V573.257ZM539.186 533.848L327.331 552.101L388.651 495.362L539.186 533.848ZM296.893 87.4242C393.083 87.4242 471.341 165.827 471.341 262.198C471.341 295.723 461.856 328.067 444.204 355.869L269.301 169.183L127.131 302.732C124.016 289.58 122.447 276.038 122.447 262.196C122.445 165.827 200.704 87.4242 296.893 87.4242ZM119.585 391.337L266.622 253.217L404.18 400.043L256.189 536.98L256.025 537.133C215.905 574.821 152.661 572.779 115.042 532.584C77.4264 492.386 79.4642 429.023 119.585 391.337V391.337Z" fill="#A3C460"/>
<path d="M891.696 981.49V926.907V926.326C965.816 919.918 1024.19 857.466 1024.19 781.575V734.7H977.404C945.362 734.7 915.729 745.182 891.698 762.875V692.124V691.543C965.818 685.135 1024.19 622.683 1024.19 546.792V499.917H977.406C930.39 499.917 888.547 522.459 862.023 557.304C835.499 522.459 793.655 499.917 746.64 499.917H699.854V546.792C699.854 622.683 758.226 685.137 832.347 691.543V692.124V762.875C808.316 745.182 778.682 734.7 746.642 734.7H699.856V781.575C699.856 857.466 758.228 919.92 832.349 926.326V926.907V981.49H27V1040.96H1040V981.49H891.696ZM963.748 795.257C957.903 831.668 929.126 860.499 892.783 866.353C898.627 829.943 927.405 801.112 963.748 795.257ZM963.748 560.473C957.903 596.885 929.126 625.716 892.783 631.569C898.627 595.158 927.405 566.327 963.748 560.473ZM760.289 560.473C796.633 566.329 825.41 595.16 831.255 631.569C794.911 625.714 766.134 596.883 760.289 560.473ZM760.289 795.257C796.633 801.112 825.41 829.943 831.255 866.353C794.911 860.499 766.134 831.668 760.289 795.257Z" fill="#A3C460"/>
</svg>
