<svg width="1080" height="1080" viewBox="0 0 1080 1080" fill="none" xmlns="http://www.w3.org/2000/svg">
<g clip-path="url(#clip0)">
<path d="M746.218 381.234C727.08 383.08 712.769 399.631 713.705 418.836L715.141 477.718C699.398 479.283 685.618 488.966 678.808 503.245L657.289 548.426C653.945 555.431 649.062 561.597 643.013 566.46L638.541 570.046C615.797 588.197 603.121 616.144 604.456 645.21L595.663 641.027C591.679 639.126 586.906 640.82 585.009 644.805L561.418 694.34C559.521 698.329 561.211 703.098 565.195 704.995L673.914 756.77C675.827 757.684 678.024 757.801 680.022 757.09C682.02 756.38 683.655 754.909 684.565 752.993L708.16 703.449C710.056 699.465 708.367 694.696 704.382 692.799L699.742 690.59L698.583 675.093C698.118 669.04 700.027 663.041 703.902 658.366L760.201 590.238C760.314 590.102 760.423 589.961 760.529 589.817C772.135 573.613 778.254 554.124 777.993 534.197C777.985 533.818 777.95 533.44 777.892 533.065L754.89 387.939C754.226 383.763 750.425 380.824 746.218 381.234ZM673.571 738.9L579.288 693.997L596.007 658.889L690.29 703.793L673.571 738.9ZM747.705 580.267L691.581 648.184C685.068 656.036 681.864 666.113 682.641 676.283L683.121 682.672L621.323 653.242C616.932 626.478 627.341 599.429 648.54 582.515L653.012 578.929C660.942 572.556 667.338 564.477 671.725 555.298L693.24 510.118C698.868 498.347 711.61 491.721 724.48 493.875L693.029 559.919C691.16 563.9 692.854 568.641 696.827 570.534C700.795 572.423 705.549 570.753 707.461 566.791L742.827 492.529C744.723 488.54 743.033 483.771 739.045 481.875C736.512 480.673 733.874 479.709 731.162 478.991L729.683 418.348C729.683 418.278 729.683 418.207 729.675 418.141C729.265 410.273 733.503 402.897 740.501 399.284L762.016 534.989C762.109 551.212 757.106 567.049 747.705 580.267Z" fill="black"/>
<path d="M319.8 590.238L376.099 658.366C379.974 663.041 381.883 669.04 381.418 675.093L380.259 690.59L375.619 692.799C371.634 694.696 369.945 699.465 371.841 703.449L395.437 752.993C396.346 754.909 397.981 756.38 399.979 757.09C401.977 757.801 404.174 757.684 406.091 756.77L514.806 704.995C518.79 703.098 520.48 698.329 518.583 694.34L494.988 644.801C493.092 640.816 488.323 639.122 484.338 641.023L475.545 645.207C476.876 616.14 464.204 588.193 441.46 570.042L436.988 566.456C430.935 561.593 426.056 555.431 422.708 548.426L401.189 503.245C394.379 488.966 380.599 479.283 364.856 477.718L366.296 418.836C367.232 399.635 352.921 383.08 333.783 381.234C329.576 380.824 325.775 383.763 325.111 387.939L302.11 533.065C302.047 533.44 302.016 533.818 302.008 534.197C301.747 554.124 307.866 573.613 319.472 589.817C319.578 589.961 319.687 590.102 319.8 590.238ZM500.713 694.001L406.43 738.9L389.711 703.793L483.995 658.889L500.713 694.001ZM339.5 399.28C346.498 402.894 350.736 410.273 350.326 418.137C350.326 418.207 350.322 418.278 350.318 418.348L348.839 478.991C346.127 479.705 343.485 480.669 340.952 481.875C336.968 483.771 335.274 488.544 337.174 492.529L372.54 566.795C374.452 570.756 379.206 572.427 383.175 570.534C387.143 568.645 388.841 563.903 386.972 559.923L355.521 493.875C368.391 491.717 381.137 498.344 386.761 510.118L408.28 555.298C412.667 564.477 419.059 572.556 426.989 578.929L431.462 582.515C452.66 599.429 463.069 626.478 458.678 653.242L396.88 682.672L397.36 676.283C398.137 666.113 394.933 656.036 388.424 648.184L332.296 580.267C322.899 567.049 317.892 551.212 317.989 534.989L339.5 399.28Z" fill="black"/>
<path d="M635.318 496.642C638.631 495.584 640.887 492.513 640.906 489.032V362.353C640.887 358.876 638.631 355.805 635.318 354.747L542.479 324.81C540.879 324.295 539.158 324.295 537.558 324.81L444.691 354.743C441.374 355.801 439.118 358.872 439.095 362.353V489.032C439.114 492.513 441.37 495.581 444.683 496.642L537.522 526.575C538.319 526.829 539.154 526.957 539.989 526.957C540.832 526.957 541.671 526.829 542.471 526.575L635.318 496.642ZM547.993 507.995V398.097L624.921 373.32V483.217L547.993 507.995ZM540.001 340.815L606.778 362.353L540.001 383.884L473.223 362.353L540.001 340.815ZM455.08 373.323L532.008 398.101V507.999L455.08 483.221V373.323Z" fill="black"/>
</g>
<defs>
<clipPath id="clip0">
<rect width="476" height="476" fill="white" transform="translate(302 302)"/>
</clipPath>
</defs>
</svg>
