<svg width="1080" height="1080" viewBox="0 0 1080 1080" fill="none" xmlns="http://www.w3.org/2000/svg">
<path d="M708.75 843.75H371.25C357.823 843.75 344.947 849.084 335.453 858.578C325.959 868.072 320.625 880.948 320.625 894.375C320.625 907.802 325.959 920.678 335.453 930.172C344.947 939.666 357.823 945 371.25 945H708.75C722.177 945 735.053 939.666 744.547 930.172C754.041 920.678 759.375 907.802 759.375 894.375C759.375 880.948 754.041 868.072 744.547 858.578C735.053 849.084 722.177 843.75 708.75 843.75V843.75ZM708.75 911.25H371.25C366.774 911.25 362.482 909.472 359.318 906.307C356.153 903.143 354.375 898.851 354.375 894.375C354.375 889.899 356.153 885.607 359.318 882.443C362.482 879.278 366.774 877.5 371.25 877.5H708.75C713.226 877.5 717.518 879.278 720.682 882.443C723.847 885.607 725.625 889.899 725.625 894.375C725.625 898.851 723.847 903.143 720.682 906.307C717.518 909.472 713.226 911.25 708.75 911.25Z" fill="#A3C460"/>
<path d="M1040.51 712.969L983.644 662.344L961.2 687.656L984.994 708.75H894.375V675H860.625V708.75H708.75C705.629 708.736 702.566 709.599 699.911 711.239C697.256 712.88 695.115 715.233 693.731 718.031L681.412 742.5H523.125V540H540C544.475 540 548.768 538.222 551.932 535.057C555.097 531.893 556.875 527.601 556.875 523.125V421.875C556.875 417.399 555.097 413.107 551.932 409.943C548.768 406.778 544.475 405 540 405H455.119C466.338 390.504 472.449 372.705 472.5 354.375V320.625C472.5 316.149 470.722 311.857 467.557 308.693C464.393 305.528 460.1 303.75 455.625 303.75H388.125C374.982 303.801 362.033 306.925 350.312 312.873C338.592 318.821 328.426 327.428 320.625 338.006C312.824 327.428 302.658 318.821 290.937 312.873C279.217 306.925 266.268 303.801 253.125 303.75H185.625C181.149 303.75 176.857 305.528 173.693 308.693C170.528 311.857 168.75 316.149 168.75 320.625V354.375C168.801 372.705 174.912 390.504 186.131 405H101.25C96.7744 405 92.4822 406.778 89.3176 409.943C86.1529 413.107 84.375 417.399 84.375 421.875V523.125C84.375 527.601 86.1529 531.893 89.3176 535.057C92.4822 538.222 96.7744 540 101.25 540H118.125V708.75H95.0062L99.7312 704.531L77.4562 679.219L39.4875 712.969C37.6711 714.536 36.2172 716.48 35.2265 718.666C34.2358 720.851 33.732 723.226 33.75 725.625V995.625C33.79 1009.04 39.1366 1021.89 48.622 1031.38C58.1073 1040.86 70.9607 1046.21 84.375 1046.25H995.625C1009.04 1046.21 1021.89 1040.86 1031.38 1031.38C1040.86 1021.89 1046.21 1009.04 1046.25 995.625V725.625C1046.27 723.226 1045.76 720.851 1044.77 718.666C1043.78 716.48 1042.33 714.536 1040.51 712.969V712.969ZM523.125 438.75V506.25H405V438.75H523.125ZM489.375 540V742.5H398.587L388.125 721.575V540H489.375ZM337.5 388.125C337.54 374.711 342.887 361.857 352.372 352.372C361.857 342.887 374.711 337.54 388.125 337.5H438.75V354.375C438.71 367.789 433.363 380.643 423.878 390.128C414.393 399.613 401.539 404.96 388.125 405H337.5V388.125ZM371.25 438.75V506.25H270V438.75H371.25ZM354.375 540V708.75H286.875V540H354.375ZM202.5 337.5H253.125C266.539 337.54 279.393 342.887 288.878 352.372C298.363 361.857 303.71 374.711 303.75 388.125V405H253.125C239.711 404.96 226.857 399.613 217.372 390.128C207.887 380.643 202.54 367.789 202.5 354.375V337.5ZM118.125 438.75H236.25V506.25H118.125V438.75ZM253.125 540V708.75H151.875V540H253.125ZM1012.5 995.625C1012.5 1000.1 1010.72 1004.39 1007.56 1007.56C1004.39 1010.72 1000.1 1012.5 995.625 1012.5H84.375C79.8994 1012.5 75.6072 1010.72 72.4426 1007.56C69.2779 1004.39 67.5 1000.1 67.5 995.625V742.5H360.787L373.106 766.969C374.49 769.767 376.631 772.12 379.286 773.761C381.941 775.401 385.004 776.264 388.125 776.25H691.875C694.996 776.264 698.059 775.401 700.714 773.761C703.369 772.12 705.51 769.767 706.894 766.969L719.212 742.5H1012.5V995.625Z" fill="#A3C460"/>
<path d="M961.875 253.125H708.75V185.625C708.75 181.149 706.972 176.857 703.807 173.693C700.643 170.528 696.351 168.75 691.875 168.75H607.5V151.875C607.5 120.546 595.055 90.5007 572.902 68.348C550.749 46.1953 520.704 33.75 489.375 33.75C458.046 33.75 428.001 46.1953 405.848 68.348C383.695 90.5007 371.25 120.546 371.25 151.875V168.75H286.875C282.399 168.75 278.107 170.528 274.943 173.693C271.778 176.857 270 181.149 270 185.625V270H303.75V202.5H371.25V253.125H405V202.5H573.75V253.125H607.5V202.5H675V253.125H658.125C653.649 253.125 649.357 254.903 646.193 258.068C643.028 261.232 641.25 265.524 641.25 270V573.75H556.875V607.5H644.288C646.844 614.557 650.919 620.966 656.227 626.273C661.534 631.581 667.943 635.656 675 638.212V658.125C675 662.601 673.222 666.893 670.057 670.057C666.893 673.222 662.601 675 658.125 675H556.875V708.75H658.125C671.539 708.71 684.393 703.363 693.878 693.878C703.363 684.393 708.71 671.539 708.75 658.125V641.25H928.125C941.539 641.21 954.393 635.863 963.878 626.378C973.363 616.893 978.71 604.039 978.75 590.625V270C978.75 265.524 976.972 261.232 973.807 258.068C970.643 254.903 966.351 253.125 961.875 253.125ZM573.75 168.75H405V151.875C405 129.497 413.889 108.036 429.713 92.2129C445.536 76.3895 466.997 67.5 489.375 67.5C511.753 67.5 533.214 76.3895 549.037 92.2129C564.861 108.036 573.75 129.497 573.75 151.875V168.75ZM945 590.625C945 595.101 943.222 599.393 940.057 602.557C936.893 605.722 932.601 607.5 928.125 607.5H691.875C687.399 607.5 683.107 605.722 679.943 602.557C676.778 599.393 675 595.101 675 590.625V573.75H945V590.625ZM945 540H675V286.875H945V540Z" fill="#A3C460"/>
<path d="M810 438.75C827.902 438.75 845.071 431.638 857.73 418.98C870.388 406.321 877.5 389.152 877.5 371.25V320.625H843.75V371.25C843.75 380.201 840.194 388.785 833.865 395.115C827.536 401.444 818.951 405 810 405C801.049 405 792.464 401.444 786.135 395.115C779.806 388.785 776.25 380.201 776.25 371.25V320.625H742.5V371.25C742.5 389.152 749.612 406.321 762.27 418.98C774.929 431.638 792.098 438.75 810 438.75Z" fill="#A3C460"/>
</svg>
