<svg width="1013" height="1013" viewBox="0 0 1013 1013" fill="none" xmlns="http://www.w3.org/2000/svg">
<g clip-path="url(#clip0)">
<path d="M1005.93 9.05797C1000.04 3.16107 991.97 -0.162222 983.685 0.00780703C980.061 0.0541786 893.601 1.45305 779.628 29.6778C673.808 55.8854 523.518 111.261 408.532 226.247C395.17 239.617 382.642 253.474 370.832 267.672C277.595 255.02 187.99 281.204 109.467 344.61C42.5299 398.656 7.38035 460.639 5.91965 463.251C0.726044 472.525 0.664215 483.809 5.74189 493.145C10.8273 502.474 20.3489 508.533 30.9602 509.198L206.353 520.149L158.296 568.205C152.5 574.002 149.246 581.862 149.246 590.062C149.246 598.254 152.5 606.114 158.296 611.91L182.587 636.201C182.255 636.534 181.899 636.858 181.567 637.191C77.4013 741.364 74.1707 902.775 74.0857 909.6C73.9775 917.931 77.2467 925.953 83.1359 931.843C88.9323 937.639 96.7923 940.893 104.985 940.893H105.379C112.203 940.808 273.614 937.577 377.78 833.404C378.12 833.071 378.445 832.724 378.769 832.384L403.068 856.682C408.865 862.479 416.725 865.732 424.917 865.732C433.117 865.732 440.977 862.479 446.773 856.682L494.83 808.618L505.781 984.018C506.438 994.622 512.505 1004.14 521.841 1009.23C526.447 1011.75 531.533 1013 536.626 1013C541.827 1013 547.036 1011.69 551.727 1009.06C554.34 1007.59 616.323 972.449 670.369 905.511C733.774 826.981 759.966 737.384 747.315 644.146C761.504 632.345 775.369 619.809 788.732 606.446C903.726 491.46 959.093 341.178 985.301 235.351C1013.53 121.385 1014.92 34.9178 1014.97 31.2931C1015.08 22.9694 1011.82 14.9472 1005.93 9.05797ZM223.85 590.062L276.636 537.275L477.703 738.342L424.917 791.128L223.85 590.062ZM225.272 680.903C225.612 680.563 225.945 680.231 226.285 679.899L335.08 788.702C334.748 789.034 334.415 789.374 334.083 789.706C274.009 849.781 186.753 869.527 138.998 875.988C145.459 828.21 165.213 740.97 225.272 680.903ZM528.804 702.033L312.937 486.166C343.659 411.037 388.059 334.13 452.237 269.952C537.708 184.481 645.831 134.817 735.853 106.222L908.757 279.133C880.161 369.148 830.505 477.271 745.027 562.741C680.076 627.692 602.033 671.961 528.804 702.033V702.033ZM927.29 212.32L802.659 87.6885C865.222 72.7647 918.781 66.4195 951.241 63.7377C948.559 96.2054 942.214 149.764 927.29 212.32V212.32ZM149.826 391.468C204.923 347.477 264.41 325.69 327.382 326.27C297.959 370.771 274.696 416.895 256.357 461.342L90.0684 450.963C104.845 432.87 124.878 411.392 149.826 391.468ZM623.518 865.153C603.586 890.101 582.108 910.141 564.016 924.918L553.636 758.622C598.083 740.274 644.208 717.019 688.709 687.596C689.296 750.577 667.509 810.063 623.518 865.153V865.153Z" fill="#A3C460"/>
<path d="M739.161 275.818C715.651 252.299 684.381 239.354 651.133 239.354C617.877 239.354 586.607 252.299 563.096 275.818C514.553 324.361 514.553 403.339 563.096 451.882C586.607 475.4 617.877 488.354 651.133 488.354C684.381 488.354 715.643 475.4 739.161 451.882C762.679 428.372 775.625 397.102 775.625 363.854C775.625 330.598 762.679 299.328 739.161 275.818V275.818ZM695.456 408.177C683.616 420.025 667.873 426.54 651.133 426.54C634.385 426.54 618.642 420.025 606.794 408.185C582.356 383.739 582.356 343.968 606.794 319.523C618.642 307.682 634.385 301.16 651.133 301.16C667.873 301.16 683.616 307.682 695.456 319.523C707.296 331.363 713.819 347.106 713.819 363.854C713.819 380.602 707.296 396.337 695.456 408.177Z" fill="#A3C460"/>
</g>
<defs>
<clipPath id="clip0">
<rect width="1013" height="1013" fill="white"/>
</clipPath>
</defs>
</svg>
