<svg width="1080" height="1080" viewBox="0 0 1080 1080" fill="none" xmlns="http://www.w3.org/2000/svg">
<path d="M303.75 101.25H337.5V135H303.75V101.25Z" fill="#A3C460"/>
<path d="M371.25 101.25H506.25V135H371.25V101.25Z" fill="#A3C460"/>
<path d="M691.875 759.375C691.848 781.744 682.95 803.19 667.132 819.008C651.315 834.825 629.869 843.723 607.5 843.75H299.227L357.244 743.276C355.409 748.448 354.439 753.888 354.375 759.375C354.375 772.802 359.709 785.678 369.203 795.172C378.697 804.666 391.573 810 405 810H472.5C485.926 810 498.803 804.666 508.297 795.172C517.791 785.678 523.125 772.802 523.125 759.375C523.125 745.948 517.791 733.072 508.297 723.578C498.803 714.084 485.926 708.75 472.5 708.75H405C396.965 708.765 389.049 710.698 381.912 714.387C374.774 718.076 368.619 723.416 363.96 729.962C370.661 714.174 371.086 696.425 365.146 680.335C359.206 664.245 347.35 651.029 331.998 643.383C316.646 635.737 298.954 634.238 282.534 639.191C266.114 644.145 252.203 655.178 243.641 670.039L186.266 769.466C185.85 766.118 185.636 762.749 185.625 759.375V151.875C185.652 129.506 194.55 108.06 210.367 92.2425C226.185 76.4249 247.63 67.5268 270 67.5H607.5C622.304 67.5344 636.84 71.4476 649.66 78.8496C662.481 86.2517 673.137 96.8841 680.569 109.688L709.779 92.8125C699.377 74.8902 684.46 60.0064 666.515 49.6437C648.569 39.281 628.222 33.8011 607.5 33.75H270C238.682 33.7857 208.657 46.2425 186.512 68.3875C164.367 90.5325 151.911 120.557 151.875 151.875V477.562C141.136 482.56 132.489 491.165 127.44 501.879L50.8442 668.048C39.5053 692.422 33.6692 718.993 33.7498 745.875V1046.25H67.4998V745.875C67.4246 723.894 72.1952 702.167 81.4723 682.239L151.875 529.487V759.375C151.863 779.53 157.029 799.35 166.877 816.936C168.147 819.781 170.181 822.219 172.752 823.979C175.323 825.739 178.331 826.754 181.443 826.909C184.555 827.065 187.649 826.355 190.383 824.86C193.117 823.365 195.383 821.142 196.931 818.438L272.869 686.914C277.376 679.225 284.741 673.632 293.358 671.354C301.974 669.076 311.141 670.298 318.86 674.754C326.578 679.211 332.22 686.539 334.555 695.14C336.89 703.741 335.729 712.916 331.324 720.664L255.386 852.188C253.877 854.798 253.096 857.766 253.122 860.781C253.149 863.796 253.983 866.749 255.538 869.332L291.684 929.408C299.569 942.55 303.739 957.585 303.75 972.911V1046.08H337.5V972.911C337.497 951.462 331.664 930.417 320.625 912.026L299.852 877.5H607.5C638.818 877.464 668.842 865.008 690.987 842.863C713.132 820.718 725.589 790.693 725.625 759.375V675H691.875V759.375ZM405 742.5H472.5C476.975 742.5 481.268 744.278 484.432 747.443C487.597 750.607 489.375 754.899 489.375 759.375C489.375 763.851 487.597 768.143 484.432 771.307C481.268 774.472 476.975 776.25 472.5 776.25H405C400.524 776.25 396.232 774.472 393.067 771.307C389.903 768.143 388.125 763.851 388.125 759.375C388.125 754.899 389.903 750.607 393.067 747.443C396.232 744.278 400.524 742.5 405 742.5Z" fill="#A3C460"/>
<path d="M997.481 233.213C959.53 178.89 902.926 140.421 838.447 125.13C773.969 109.84 706.119 118.795 647.816 150.292C589.512 181.788 544.828 233.626 522.271 295.936C499.714 358.245 500.858 426.674 525.487 488.194L468.45 584.887C466.805 587.671 465.994 590.868 466.113 594.099C466.233 597.33 467.278 600.459 469.125 603.113C471.019 605.761 473.627 607.818 476.644 609.042C479.661 610.267 482.964 610.61 486.169 610.031L596.362 589.444C633.78 622.986 679.845 645.376 729.337 654.075C744.889 656.749 760.639 658.103 776.419 658.125C825.811 658.111 874.253 644.549 916.473 618.914C958.692 593.28 993.071 556.555 1015.87 512.738C1038.66 468.921 1049 419.69 1045.76 370.404C1042.52 321.119 1025.82 273.666 997.481 233.213V233.213ZM1008.96 429.131C1001.53 471.228 982.83 510.522 954.837 542.826C926.843 575.131 890.61 599.235 849.998 612.571C809.385 625.906 765.916 627.973 724.221 618.551C682.527 609.129 644.17 588.571 613.237 559.069C610.073 556.131 605.912 554.503 601.594 554.513C600.578 554.485 599.562 554.541 598.556 554.681L516.375 570.037L558.9 498.15C560.222 495.835 561 493.249 561.175 490.589C561.351 487.928 560.919 485.263 559.912 482.794C541.091 440.201 535.392 392.965 543.544 347.119C554.419 285.401 589.367 230.532 640.698 194.581C666.114 176.78 694.788 164.16 725.082 157.44C755.376 150.721 786.697 150.034 817.256 155.419C847.816 160.804 877.015 172.155 903.188 188.825C929.36 205.495 951.993 227.156 969.794 252.573C987.595 277.989 1000.22 306.663 1006.93 336.957C1013.65 367.251 1014.34 398.572 1008.96 429.131Z" fill="#A3C460"/>
<path d="M894.375 286.875H843.75V270C843.75 252.098 836.638 234.929 823.98 222.27C811.321 209.612 794.152 202.5 776.25 202.5C758.348 202.5 741.179 209.612 728.52 222.27C715.862 234.929 708.75 252.098 708.75 270V286.875H658.125C653.649 286.875 649.357 288.653 646.193 291.818C643.028 294.982 641.25 299.274 641.25 303.75V506.25C641.29 519.664 646.637 532.518 656.122 542.003C665.607 551.488 678.461 556.835 691.875 556.875H860.625C874.039 556.835 886.893 551.488 896.378 542.003C905.863 532.518 911.21 519.664 911.25 506.25V303.75C911.25 299.274 909.472 294.982 906.307 291.818C903.143 288.653 898.851 286.875 894.375 286.875ZM742.5 270C742.5 261.049 746.056 252.465 752.385 246.135C758.714 239.806 767.299 236.25 776.25 236.25C785.201 236.25 793.786 239.806 800.115 246.135C806.444 252.465 810 261.049 810 270V286.875H742.5V270ZM877.5 506.25C877.5 510.726 875.722 515.018 872.557 518.182C869.393 521.347 865.101 523.125 860.625 523.125H691.875C687.399 523.125 683.107 521.347 679.943 518.182C676.778 515.018 675 510.726 675 506.25V489.375H877.5V506.25ZM877.5 455.625H675V320.625H708.75V354.375H742.5V320.625H810V354.375H843.75V320.625H877.5V455.625Z" fill="#A3C460"/>
<path d="M376.194 258.069L350.207 284.057C332.714 272.479 311.546 267.81 290.806 270.956C270.066 274.102 251.234 284.838 237.962 301.083C224.69 317.327 217.924 337.922 218.976 358.872C220.028 379.822 228.824 399.636 243.656 414.468C258.489 429.301 278.302 438.097 299.253 439.149C320.203 440.201 340.798 433.435 357.042 420.163C373.286 406.891 384.023 388.058 387.169 367.319C390.314 346.579 385.646 325.41 374.068 307.918L400.055 281.931L376.194 258.069ZM354.375 354.375C354.375 364.388 351.406 374.175 345.843 382.501C340.28 390.826 332.374 397.315 323.123 401.146C313.873 404.978 303.694 405.981 293.873 404.027C284.053 402.074 275.033 397.252 267.953 390.172C260.873 383.092 256.051 374.072 254.098 364.251C252.144 354.431 253.147 344.252 256.978 335.002C260.81 325.751 267.299 317.845 275.624 312.282C283.949 306.719 293.737 303.75 303.75 303.75C311.267 303.779 318.681 305.51 325.434 308.812L274.944 359.302L298.805 383.164L349.312 332.691C352.615 339.444 354.346 346.857 354.375 354.375V354.375Z" fill="#A3C460"/>
<path d="M421.875 303.75H489.375V337.5H421.875V303.75Z" fill="#A3C460"/>
<path d="M421.875 371.25H489.375V405H421.875V371.25Z" fill="#A3C460"/>
</svg>
