<?xml version="1.0" encoding="utf-8"?>
<!-- Svg Vector Icons : http://www.onlinewebfonts.com/icon -->
<!DOCTYPE svg PUBLIC "-//W3C//DTD SVG 1.1//EN" "http://www.w3.org/Graphics/SVG/1.1/DTD/svg11.dtd">
<svg version="1.1" xmlns="http://www.w3.org/2000/svg" xmlns:xlink="http://www.w3.org/1999/xlink" x="0px" y="0px" viewBox="0 0 1000 1000" enable-background="new 0 0 1000 1000" xml:space="preserve">
<metadata> Svg Vector Icons : http://www.onlinewebfonts.com/icon </metadata>
<g><path d="M444,643.1l25.5-45.4C353.4,532.4,290.5,465.9,271.8,387H468v-52.1H265.9l0-20.2v-90H447v-52.1H32.4v52.1h181.4v90l0,20.2H12V387h195.8C189.1,465.9,126.2,532.4,10,597.7l25.5,45.4c71.7-40.3,160.9-100.3,204.3-191.8c11.2,23.8,26,46.6,44.4,68.2C321.1,562.9,373.4,603.4,444,643.1z"/><path d="M646.4,413.4c0.2-58.4,0.3-113.5-0.2-153.1c-0.3-25.4-8.4-46.1-24.1-61.3c-29.1-28.3-74.9-27.5-99.5-27.1c-2.5,0-4.8,0.1-6.9,0.1v52.1c2.3,0,4.9,0,7.8-0.1c17-0.3,48.8-0.8,62.3,12.4c2,1.9,8.1,7.9,8.3,24.6c0.1,5.7,0.1,11.8,0.2,18.1l-80.9,48.3l26.7,44.7l54.4-32.4c0,18.5-0.1,38-0.1,58l-80.9,48.3l26.7,44.7l54.1-32.3c0,14.9-0.1,29.8-0.1,44.3c0,11.9-7,30.9-15.4,41.5c-24.2,30.6-65.4,54.2-65.7,54.5l25.7,45.3c2-1.2,50.4-28.8,81-67.5c15.6-19.8,26.6-50.1,26.6-73.8C646.2,473.5,646.3,443.1,646.4,413.4z"/><path d="M724.8,299h52.1v-41.9h110.7V299h52.1v-41.9h50.2V205h-50.2v-33.9h-52.1V205H776.8v-33.9h-52.1V205h-49.1v52.1h49.1V299z"/><path d="M675.7,568.5c0,42.5,34.8,77.3,77.3,77.3h159.5c42.5,0,77.3-34.8,77.3-77.3V365.8l0,0v-32.2H675.7v52.1l0,0L675.7,568.5L675.7,568.5z M806.7,463.3h-78.9v-77.6h78.9V463.3z M858.8,385.7h78.9v77.6h-78.9V385.7z M727.8,568.5v-53.2h78.9v78.4H753C739.3,593.8,727.8,582.2,727.8,568.5z M912.5,593.8h-53.7v-78.4h78.9v53.2C937.8,582.2,926.2,593.8,912.5,593.8z"/><path d="M362.3,701.2c-20,0-27.1,21.2-27.1,21.2l-42.4,106.5h21.9l17.7-45.1h58.3l17.4,45.1h23.8l-42.4-106.5C389.4,722.4,382.3,701.2,362.3,701.2z M353.1,733c0,0,2.4-6.8,9.2-6.8c7,0,9.2,6.8,9.2,6.8l10.8,28.8l0.5,1.3h-42.1L353.1,733z"/><path d="M11.2,721h51.6v107.8h0h21.5V721H136v-20.1H11.2V721z"/><path d="M460.8,785.9v-84.7h-21.4v21.2v73.4c0,19.2,13.3,33,33.5,33h26v-21.1c0,0-4.8,0-15.8,0C468.8,807.7,460.8,805.1,460.8,785.9z"/><path d="M534.3,785.9v-84.7h-21.4v21.2v73.4c0,19.2,13.3,33,33.5,33h26v-21.1c0,0-4.8,0-15.8,0C542.3,807.7,534.3,805.1,534.3,785.9z"/><path d="M266.8,701.8c-7.1-2.9-13.8,2.4-15.1,3.5c-9.4,7.4-19.5,18.4-37.8,18.4h-0.7H213h-0.7c-18.4,0-28.5-11-37.8-18.4c-1.3-1-7.9-6.3-15.1-3.5c-6.7,2.7-7.7,9.1-7.7,14.2c0,9.8,0,66.1,0,112.8H173v-96c7.1,3.9,21.8,13.5,39.5,13.5h1.2c16.9,0,32.5-9.7,39.5-13.5v96h21.3c0-46.7,0-103,0-112.8C274.6,710.9,273.5,704.5,266.8,701.8z"/><path d="M982.3,701.8c-7.1-2.9-13.8,2.4-15.1,3.5c-9.4,7.4-19.5,18.4-37.8,18.4h-0.7h-0.2h-0.7c-18.4,0-28.5-11-37.8-18.4c-1.3-1-7.9-6.3-15.1-3.5c-6.7,2.7-7.7,9.1-7.7,14.2c0,9.8,0,66.1,0,112.8h21.3v-96c7.1,3.9,21.8,13.5,39.5,13.5h1.2c16.9,0,32.5-9.7,39.5-13.5v96H990c0-46.7,0-103,0-112.8C990,710.9,988.9,704.5,982.3,701.8z"/><path d="M605.7,807.5c-5.9,0-10.7,4.8-10.7,10.7c0,5.9,4.8,10.7,10.7,10.7c5.9,0,10.7-4.8,10.7-10.7C616.4,812.3,611.6,807.5,605.7,807.5z"/><path d="M793.4,701.3c-15.4,0-28.6,4.6-39.3,13.6c-12.8,10.9-19.3,27.7-19.3,50.1c0,20.4,5.4,36.3,16.2,47.2c10.7,11,25,16.6,42.5,16.6c10.8,0,21-2.5,30.2-7.5c9.2-5,16.3-12.1,21.1-21.1c4.8-9,7.2-21.4,7.2-36.8c0-19.2-5.5-34.5-16.3-45.5C824.6,706.9,810.4,701.3,793.4,701.3z M820.1,798c-7.2,7-16.2,10.5-26.7,10.5c-10.9,0-19.7-3.4-26.9-10.4c-7.4-7.2-11.1-18.3-11.1-33c0-14.7,3.8-25.7,11.1-32.9c7.1-6.9,16.2-10.4,26.9-10.4c10.5,0,19.5,3.5,26.7,10.5c7.4,7.2,11.2,18,11.2,32.2C831.2,779.5,827.5,790.8,820.1,798z"/><path d="M688.2,720.7c10.5,0,19.5,3.5,26.7,10.4c0.5,0.5,1,1,1.5,1.5l12-17.8c-10.6-9.7-24.1-14.7-40.1-14.7c-15.4,0-28.6,4.6-39.3,13.6c-12.8,10.9-19.3,27.7-19.3,50.1c0,20.4,5.4,36.3,16.2,47.2c10.7,11,25,16.6,42.5,16.6c10.8,0,21-2.5,30.1-7.5c2.3-1.2,4.4-2.6,6.4-4l-9.5-19.6c-0.1,0.1-0.2,0.2-0.3,0.3c-7.2,7-16.2,10.5-26.7,10.5c-10.9,0-19.7-3.4-26.9-10.4c-7.3-7.2-11.1-18.3-11.1-33c0-14.7,3.8-25.7,11.1-32.9C668.4,724.2,677.4,720.7,688.2,720.7z"/></g>
</svg>