<svg width="1080" height="1080" viewBox="0 0 1080 1080" fill="none" xmlns="http://www.w3.org/2000/svg">
<g clip-path="url(#clip0)">
<path d="M486.667 593.333C420.896 593.333 361.163 551.989 338.016 490.421C337.099 488.011 337.099 485.344 338.016 482.912C361.163 421.344 420.896 380 486.667 380C552.437 380 612.171 421.344 635.317 482.912C636.235 485.323 636.235 487.989 635.317 490.421C612.171 551.989 552.437 593.333 486.667 593.333ZM359.456 486.667C380.469 537.867 431.072 572 486.667 572C542.261 572 592.864 537.867 613.877 486.667C592.864 435.467 542.261 401.333 486.667 401.333C431.072 401.333 380.469 435.467 359.456 486.667Z" fill="black"/>
<path d="M486.667 540C457.269 540 433.333 516.085 433.333 486.667C433.333 457.248 457.269 433.333 486.667 433.333C516.064 433.333 540 457.248 540 486.667C540 516.085 516.064 540 486.667 540ZM486.667 454.667C469.024 454.667 454.667 469.024 454.667 486.667C454.667 504.309 469.024 518.667 486.667 518.667C504.31 518.667 518.667 504.309 518.667 486.667C518.667 469.024 504.31 454.667 486.667 454.667Z" fill="black"/>
<path d="M486.667 689.333C374.923 689.333 284 598.411 284 486.667C284 374.923 374.923 284 486.667 284C598.411 284 689.333 374.923 689.333 486.667C689.333 598.411 598.411 689.333 486.667 689.333ZM486.667 305.333C386.677 305.333 305.333 386.677 305.333 486.667C305.333 586.656 386.677 668 486.667 668C586.656 668 668 586.656 668 486.667C668 386.677 586.656 305.333 486.667 305.333Z" fill="black"/>
<path d="M785.333 796C782.602 796 779.872 794.955 777.781 792.885L614.88 629.984C610.72 625.824 610.72 619.061 614.88 614.901C619.04 610.741 625.802 610.741 629.962 614.901L792.864 777.803C797.024 781.963 797.024 788.725 792.864 792.885C790.794 794.955 788.064 796 785.333 796Z" fill="black"/>
</g>
<defs>
<clipPath id="clip0">
<rect width="512" height="512" fill="white" transform="translate(284 284)"/>
</clipPath>
</defs>
</svg>
