<svg xmlns="http://www.w3.org/2000/svg" viewBox="0 0 379.4 58.4"><defs><style>.a{fill:#fff}</style></defs><path d="M9.06,11.7l4.13,25.06h.13L17.71,11.7h9.84L32.2,36.76h.15L36.61,11.7h8.65L37.65,47.05H27.46L22.7,21.93h-.13L18.16,47H7.68L0,11.66Z" class="a"/><path d="M56.52,33.52c-.86,9.22,8.43,12,9.21,1.66h8.13c-.93,19.91-32.8,17.87-25.93-13,4-19,30.28-14.43,26.54,8.53H56.61Zm8.95-11.75c-1.4-9.28-10.7-3.72-8.95,3.59h9.3C65.69,24,65.6,22.72,65.47,21.77Z" class="a"/><path d="M106.38,47.72a4.53,4.53,0,0,1-4.71-5.19c-7.39,9.68-28.53,5.47-22.25-9,4.23-7.63,14.76-4.38,21.14-8.29,5.64-9.73-16.12-11.45-15.24-1.6H79.74c-1.1-13.81,27.61-16.1,27.16-2V39.12c-.19,2.58.33,4.77,3.48,3.48v4.3A7.82,7.82,0,0,1,106.38,47.72Zm-7.81-17.1c-6,.3-19.56,3-12.13,11.11,8.9,4.16,17-2.79,15-12.26A7,7,0,0,1,98.57,30.62Z" class="a"/><path d="M120.48,13.06v7.16h.15c2.08-4.89,7-8.47,12.45-8v5.94c-16.18-.72-11.53,18.67-12.19,28.93h-5.58v-34Z" class="a"/><path d="M160.16,44.82c-18.76,11.77-33.94-12.26-21.32-27.54,11.8-12.12,28.38-1.12,26.87,14.44H140.28C138.66,43.07,157,47.86,159.53,36.2h5.58A13.47,13.47,0,0,1,160.16,44.82ZM158.82,23c-3.95-9.55-18.47-6.54-18.54,3.76h19.44A11.68,11.68,0,0,0,158.82,23Z" class="a"/><path d="M178.86,11.7v4.71H179c1.8-3.63,5.6-6.43,9.79-5.53v8.65c-4.26-.81-9.87,1-9.51,6.16V47h-9.08V11.66Z" class="a"/><path d="M199.85,33.52c-.86,9.2,8.45,12,9.21,1.66h8.16c-.92,19.85-32.89,18-25.93-13,3.84-18.72,30.08-14.74,26.34,8.54H199.77Zm9-11.75c-1.42-9.28-10.7-3.72-9,3.59h9.3c-.13-1.38-.21-2.64-.34-3.59Z" class="a"/><path d="M222.43,21.64c-1.31-12.6,21.16-15.2,24.69-4.39,1.7,7.27-1.07,22.76,1.62,29.78h-8.65A13.75,13.75,0,0,1,239,43.31h-.13c-16.55,16.74-28.1-16.41-3.51-17.9,10.89-4-4.62-15.48-4.75-2.9h-8.15ZM237,30.49c-18.65,5.16,4.54,23.2,2-1.15A7.42,7.42,0,0,1,237,30.49Z" class="a"/><path d="M272,43.18c-24.85,24.42-25.74-51.48-.44-28.3h.13V0h9.08V46.88h-8.64v-3.7Zm-8.93-5.25c9.5,13.8,13-23.08,2.79-20.16-5.57,2.09-3.62,15.41-2.79,20.24Z" class="a"/><path d="M289.78,51.78c2.76.34,4.8-2.19,4.84-4.79l-9.9-35.34h9.43l5.3,24.46h.15l4.58-24.41h9.06l-8.58,33c-2.94,11.54-5,14.37-17.3,13.64V51.57A15.11,15.11,0,0,0,289.78,51.78Z" class="a"/><path d="M322.19,47h-8.65V36.78h8.65Z" class="a"/><path d="M348.2,46.36c-28.11,9.17-27.08-41.86.57-33.52l-1.22,7.29c-14.13-6-14.21,25.15-.1,19Z" class="a"/><path d="M353.13,22.72c0-3.73-.15-7.07-.3-10.4h8.09l.52,4h.13c7-9.07,18.75-4.1,17.77,8.5V46.9H370V25.28c.46-8.6-8.28-6.48-7.54.64v21h-9.3Z" class="a"/></svg>