<svg xmlns="http://www.w3.org/2000/svg" width="802" height="123" fill="none" viewBox="0 0 802 123"><g clip-path="url(#clip0)"><path fill="#000" d="M18.9607 24.4556L27.6702 77.4129H27.9272L37.1763 24.4556H57.9097L67.7754 77.4129H68.058L77.0245 24.4556H95.2401L79.2854 98.905H57.4986L47.6843 45.9993H47.4017L38.2553 98.905H16.1603L0 24.3525L18.9607 24.4556Z"/><path fill="#000" d="M118.98 70.558C118.978 72.7073 119.15 74.8532 119.493 76.9747C119.75 78.8871 120.277 80.7528 121.061 82.5153C121.701 84.0139 122.688 85.3387 123.938 86.3808C125.19 87.3852 126.755 87.9145 128.357 87.8754C129.731 87.9837 131.109 87.7205 132.347 87.1131C133.585 86.5058 134.638 85.5766 135.397 84.4223C137.122 81.2412 138.147 77.7263 138.403 74.1143H155.539C155.154 82.7472 152.97 89.3701 148.628 93.8798C144.286 98.3896 137.709 100.657 128.588 100.657C122.998 100.948 117.431 99.7475 112.454 97.1784C108.755 95.055 105.775 91.8685 103.898 88.03C101.99 84.0253 100.84 79.6999 100.507 75.2739C100.096 70.5838 99.8905 65.8937 99.8905 61.152C99.8737 56.3312 100.217 51.5158 100.918 46.7465C101.521 42.402 102.924 38.2076 105.055 34.377C107.186 30.751 110.27 27.7823 113.97 25.7956C118.774 23.4964 124.066 22.4083 129.385 22.6259C134.056 22.4405 138.705 23.3678 142.95 25.3317C146.419 27.0559 149.325 29.7381 151.326 33.0627C153.485 36.7134 154.892 40.7621 155.462 44.9685C156.227 50.1295 156.596 55.3416 156.567 60.5592V64.8371H118.98V70.558ZM137.863 45.7158C137.647 43.7906 137.153 41.9071 136.399 40.1237C135.8 38.6989 134.788 37.4871 133.496 36.6447C132.061 35.8181 130.422 35.4161 128.768 35.4851C127.093 35.4062 125.437 35.8667 124.041 36.7993C122.775 37.6825 121.751 38.8697 121.061 40.2525C120.298 41.7701 119.77 43.3949 119.493 45.0715C119.166 46.7702 118.994 48.4954 118.98 50.2255V53.1633H138.403C138.3 50.3629 138.12 47.8804 137.863 45.7158Z"/><path fill="url(#paint0_linear)" d="M223.982 100.529C221.341 100.645 218.759 99.72 216.789 97.9516C215.82 96.7963 215.093 95.4569 214.651 94.0135C214.21 92.5701 214.063 91.0522 214.219 89.5506C211.202 93.2452 207.318 96.1317 202.915 97.9516C198.474 99.6735 193.751 100.547 188.99 100.529C185.921 100.547 182.861 100.21 179.869 99.5236C177.136 98.8714 174.56 97.68 172.29 96.0189C170.104 94.3827 168.342 92.244 167.152 89.7826C165.829 86.9015 165.188 83.7532 165.276 80.5827C165.139 77.1288 165.854 73.6943 167.357 70.5839C168.673 68.0853 170.546 65.9247 172.83 64.2703C175.171 62.6167 177.778 61.379 180.537 60.611C183.441 59.7863 186.446 59.0905 189.478 58.5236C192.51 57.9567 195.773 57.3897 198.702 57.1062C201.303 56.8347 203.88 56.3608 206.409 55.6889C208.339 55.2484 210.142 54.3664 211.676 53.1119C212.352 52.4457 212.875 51.6392 213.208 50.7489C213.541 49.8586 213.676 48.906 213.603 47.9579C213.703 45.7829 213.196 43.6232 212.138 41.7216C211.23 40.2122 209.935 38.9751 208.387 38.1396C206.785 37.2846 205.046 36.7177 203.249 36.4645C201.378 36.1872 199.488 36.0494 197.597 36.0522C193.268 35.8877 188.971 36.8651 185.136 38.8869C181.796 40.7681 179.998 44.3759 179.715 49.633H167.974C168.02 45.726 168.961 41.8819 170.723 38.3973C172.323 35.4293 174.604 32.8855 177.377 30.9755C180.281 29.0256 183.523 27.6361 186.935 26.8781C190.661 26.0386 194.471 25.6237 198.29 25.6412C201.506 25.6408 204.717 25.8733 207.899 26.3369C210.934 26.7438 213.868 27.7045 216.557 29.1716C219.131 30.5983 221.278 32.6891 222.775 35.2275C224.475 38.3124 225.293 41.8081 225.139 45.3294V82.2062C225.068 84.2455 225.231 86.2862 225.627 88.2879C225.935 89.5506 227.014 90.2464 228.864 90.2464C230.095 90.2101 231.311 89.9661 232.461 89.5248V98.6989C229.847 100.053 226.92 100.684 223.982 100.529V100.529ZM207.54 64.4507C205.176 64.9661 202.632 65.3784 200.012 65.6876C197.391 65.9969 194.745 66.3834 192.073 66.8215C189.599 67.1641 187.18 67.8313 184.879 68.8058C182.864 69.6667 181.097 71.0226 179.741 72.7486C178.305 74.7923 177.599 77.2619 177.737 79.7581C177.679 81.4758 178.087 83.1771 178.919 84.6801C179.665 85.9836 180.702 87.0953 181.95 87.9271C183.292 88.8057 184.794 89.4099 186.369 89.7052C188.055 90.0907 189.779 90.2895 191.508 90.298C194.873 90.3467 198.218 89.7701 201.374 88.5971C203.871 87.6903 206.179 86.3273 208.182 84.577C209.817 83.1022 211.129 81.3034 212.036 79.2942C212.813 77.6219 213.233 75.8048 213.269 73.9598V61.9252C211.557 63.1559 209.604 64.0079 207.54 64.4249V64.4507Z"/><path fill="url(#paint1_linear)" d="M253.811 27.3169V42.4439H254.119C256.457 37.3055 260.087 32.8652 264.653 29.5589C269.374 26.6589 274.879 25.3077 280.402 25.6934V38.2176C276.318 38.1134 272.25 38.7687 268.404 40.1503C265.306 41.3066 262.568 43.2622 260.465 45.8197C258.326 48.4685 256.815 51.5703 256.046 54.8908C255.067 58.904 254.601 63.0259 254.659 67.1572V98.9058H242.917V27.3169H253.811Z"/><path fill="url(#paint2_linear)" d="M337.258 94.4216C331.411 98.6542 324.321 100.804 317.116 100.529C312.027 100.649 306.969 99.7006 302.266 97.746C298.206 96.0077 294.595 93.3637 291.706 90.015C288.78 86.5205 286.603 82.459 285.309 78.0835C283.828 73.1823 283.015 68.1023 282.894 62.9823C282.867 57.8789 283.737 52.8107 285.463 48.01C287.013 43.6746 289.377 39.6769 292.426 36.2331C295.405 32.9406 299.037 30.3076 303.088 28.5021C307.328 26.6275 311.917 25.6789 316.551 25.719C322.095 25.5046 327.585 26.8814 332.377 29.6875C336.457 32.2086 339.903 35.6388 342.448 39.712C344.956 43.8017 346.698 48.317 347.586 53.0351C348.547 57.5553 348.944 62.1778 348.768 66.7962H295.38C295.252 69.8058 295.608 72.8165 296.434 75.7127C297.236 78.4698 298.611 81.0254 300.467 83.2117C302.394 85.4315 304.79 87.1922 307.481 88.3657C310.656 89.7158 314.079 90.383 317.527 90.3242C321.901 90.5059 326.217 89.2678 329.833 86.7938C333.167 84.1825 335.404 80.4126 336.102 76.2281H347.689C346.631 83.3975 342.904 89.8984 337.258 94.4216ZM334.458 48.3965C333.459 45.9972 332.001 43.8173 330.167 41.9798C328.356 40.1448 326.21 38.6751 323.847 37.6504C318.627 35.5556 312.804 35.5556 307.584 37.6504C305.223 38.6877 303.085 40.1756 301.29 42.0313C299.528 43.9105 298.134 46.1046 297.179 48.4996C296.162 50.9606 295.554 53.5723 295.38 56.2306H336.333C336.137 53.5343 335.504 50.8881 334.458 48.3965V48.3965Z"/><path fill="#000" d="M376.644 24.4557V34.4802H376.927C378.695 31.1587 381.106 28.2239 384.018 25.8472C386.916 23.642 390.478 22.4964 394.115 22.6002H395.836C396.423 22.6344 397.007 22.7119 397.583 22.8322V41.0773C396.581 41.0773 395.553 40.8969 394.603 40.8711C393.652 40.8454 392.624 40.8711 391.597 40.8711C389.93 40.8892 388.271 41.123 386.664 41.5669C385.013 42.0253 383.468 42.8046 382.116 43.8605C380.703 44.9711 379.561 46.3899 378.776 48.0094C377.9 50.0041 377.479 52.17 377.543 54.3488V98.9051H358.428V24.4557H376.644Z"/><path fill="#000" d="M420.834 70.558C420.825 72.7066 420.988 74.8525 421.322 76.9747C421.599 78.8858 422.135 80.7499 422.915 82.5153C423.549 84.018 424.536 85.3443 425.793 86.3808C427.044 87.3852 428.609 87.9145 430.212 87.8754C431.582 87.979 432.954 87.7135 434.187 87.1063C435.42 86.4992 436.469 85.5726 437.226 84.4223C438.951 81.2413 439.976 77.7263 440.232 74.1143H457.394C457.008 82.7472 454.825 89.3701 450.483 93.8798C446.141 98.3896 439.564 100.657 430.443 100.657C424.845 100.944 419.271 99.7438 414.283 97.1784C410.589 95.0476 407.611 91.8631 405.727 88.03C403.843 84.0166 402.694 79.6957 402.336 75.2739C401.925 70.5838 401.719 65.8937 401.719 61.152C401.711 56.3305 402.063 51.5152 402.773 46.7466C403.364 42.3992 404.767 38.2027 406.909 34.377C409.023 30.7461 412.1 27.7752 415.799 25.7956C420.603 23.4964 425.895 22.4083 431.214 22.6259C435.893 22.4404 440.551 23.3676 444.805 25.3317C448.267 27.0563 451.164 29.739 453.155 33.0627C455.325 36.7063 456.724 40.759 457.265 44.9685C458.065 50.1258 458.443 55.3401 458.396 60.5593V64.8371H420.834V70.558ZM439.692 45.7158C439.471 43.7942 438.987 41.9125 438.253 40.1237C437.652 38.708 436.652 37.499 435.376 36.6447C433.922 35.8191 432.267 35.4175 430.597 35.4851C428.923 35.4169 427.27 35.8765 425.87 36.7993C424.619 37.6913 423.604 38.8769 422.915 40.2526C422.156 41.7735 421.619 43.3966 421.322 45.0715C421.002 46.7709 420.839 48.4961 420.834 50.2255V53.1633H440.309C440.228 50.672 440.022 48.1864 439.692 45.7158V45.7158Z"/><path fill="#000" d="M468.39 45.4329C468.273 41.7066 468.984 38.0008 470.471 34.5838C471.734 31.8203 473.647 29.406 476.046 27.5486C478.507 25.6946 481.324 24.3699 484.319 23.6573C487.643 22.8656 491.05 22.4763 494.467 22.4977C499.122 22.3614 503.771 22.9171 508.264 24.147C511.325 25.0163 514.118 26.6473 516.382 28.8886C518.346 30.8938 519.708 33.4118 520.313 36.1557C521.027 39.1778 521.372 42.2758 521.341 45.3814V84.5775C521.3 87.3175 521.463 90.0567 521.829 92.7723C522.229 94.9044 522.858 96.9868 523.705 98.9829H505.489C504.838 97.7715 504.346 96.4809 504.025 95.1432C503.691 93.7774 503.408 92.5662 503.125 91.1489H502.843C501.228 94.5015 498.504 97.1883 495.135 98.751C491.526 100.036 487.709 100.631 483.882 100.503C480.986 100.586 478.111 99.9954 475.481 98.7767C473.243 97.6847 471.329 96.0231 469.931 93.9578C468.53 91.8644 467.496 89.546 466.874 87.103C466.266 84.6409 465.956 82.1145 465.949 79.5781C465.895 76.5023 466.258 73.4333 467.028 70.4556C467.685 68.0656 468.841 65.8431 470.42 63.9358C472.049 62.0647 474.042 60.5475 476.277 59.4776C478.998 58.1237 481.847 57.0446 484.781 56.2563L495.572 53.3701C497.806 52.9511 499.87 51.8851 501.507 50.3035C502.722 48.6665 503.306 46.6435 503.151 44.6083C503.295 42.2073 502.585 39.8329 501.147 37.9081C500.267 37.0173 499.197 36.3369 498.019 35.9175C496.84 35.4982 495.582 35.3506 494.339 35.4857C493.12 35.3889 491.894 35.5705 490.755 36.0168C489.616 36.4632 488.592 37.1626 487.762 38.0627C486.205 40.0845 485.421 42.5984 485.552 45.1495V47.3657H468.39V45.4329ZM498.989 64.1419C497.688 64.6813 496.348 65.1207 494.981 65.4562C491.838 65.8939 488.923 67.351 486.682 69.6052C484.884 71.8248 483.968 74.6341 484.113 77.4908C484.045 80.0327 484.619 82.5506 485.783 84.8094C486.311 85.8006 487.113 86.6175 488.093 87.1616C489.073 87.7057 490.19 87.9538 491.307 87.8761C492.675 87.8555 494.034 87.6386 495.341 87.2318C496.72 86.8016 498.009 86.1203 499.143 85.2218C500.331 84.235 501.294 83.0049 501.969 81.6139C502.721 80.0018 503.099 78.2396 503.074 76.46V61.8226C501.821 62.7745 500.447 63.5544 498.989 64.1419Z"/><path fill="#000" d="M572.776 91.1741C571.119 94.2226 568.657 96.7547 565.66 98.4928C562.614 99.9739 559.254 100.69 555.871 100.58C552.44 100.798 549.015 100.073 545.963 98.4837C542.912 96.8945 540.351 94.501 538.555 91.5607C534.855 85.5648 533.014 75.6434 533.031 61.7964C533.048 47.9493 534.889 37.9334 538.555 31.7486C540.315 28.775 542.857 26.3441 545.902 24.7216C548.947 23.0991 552.378 22.3474 555.82 22.5487C559.027 22.4572 562.201 23.222 565.017 24.7649C567.758 26.4351 570.093 28.6978 571.851 31.3878H572.16V0H591.249V98.9051H573.059V91.1741H572.776ZM553.995 80.0673C554.49 81.8528 555.554 83.4267 557.025 84.5481C558.496 85.6695 560.292 86.2767 562.14 86.2767C563.987 86.2767 565.784 85.6695 567.255 84.5481C568.726 83.4267 569.79 81.8528 570.284 80.0673C572.785 67.9637 572.785 55.4744 570.284 43.3708C569.79 41.5853 568.726 40.0114 567.255 38.89C565.784 37.7686 563.987 37.1615 562.14 37.1615C560.292 37.1615 558.496 37.7686 557.025 38.89C555.554 40.0114 554.49 41.5853 553.995 43.3708C551.529 55.4779 551.529 67.9603 553.995 80.0673V80.0673Z"/><path fill="#000" d="M610.312 109.213C611.695 109.348 613.09 109.168 614.394 108.686C615.697 108.204 616.875 107.433 617.84 106.43C619.411 104.306 620.307 101.755 620.409 99.1116L599.599 24.4561H619.484L630.532 75.996H630.814L640.475 24.4561H659.538L641.554 94.0349C640.24 99.1335 638.653 104.157 636.801 109.085C635.61 112.371 633.775 115.385 631.405 117.949C629.364 120.016 626.765 121.44 623.929 122.047C620.308 122.755 616.622 123.075 612.933 123H605.225V108.672C606.904 108.987 608.605 109.168 610.312 109.213V109.213Z"/><path fill="#000" d="M678.448 98.9054H660.258V77.3359H678.448V98.9054Z"/><path fill="#000" d="M733.531 98.2864C729.339 99.8015 724.909 100.544 720.454 100.477C700.902 100.477 688.159 87.0507 688.159 62.2342C688.159 38.6805 702.187 22.2908 723.46 22.2908C727.33 22.2499 731.174 22.9406 734.79 24.3266L732.221 40.4071C729.759 39.4668 727.147 38.9864 724.513 38.9897C714.596 38.9897 708.764 48.3442 708.764 61.6157C708.764 75.3511 714.596 83.7521 724.179 83.7521C726.834 83.8513 729.474 83.3216 731.887 82.2059L733.531 98.2864Z"/><path fill="#000" d="M744.347 46.1533C744.347 37.9069 744.039 30.5625 743.731 23.2438H761.458L762.563 31.9798H762.871C764.885 28.8863 767.641 26.3496 770.887 24.6025C774.132 22.8555 777.763 21.9541 781.446 21.9811C796.117 21.9811 802 33.526 802 50.5342V99.4971H781.446V51.7712C781.446 45.3802 779.879 39.1439 773.893 39.1439C770.425 39.1439 767.599 41.4889 766.185 45.9987C765.393 48.2566 765.018 50.6409 765.081 53.0339V99.4198H744.527L744.347 46.1533Z"/></g><defs><linearGradient id="paint0_linear" x1="165.199" x2="232.409" y1="63.111" y2="63.111" gradientUnits="userSpaceOnUse"><stop offset=".24" stop-color="#C3D939"/><stop offset="1" stop-color="#80C342"/></linearGradient><linearGradient id="paint1_linear" x1="11156.2" x2="11704.2" y1="17671.4" y2="17671.4" gradientUnits="userSpaceOnUse"><stop offset=".24" stop-color="#C3D939"/><stop offset="1" stop-color="#80C342"/></linearGradient><linearGradient id="paint2_linear" x1="20501.1" x2="22193.1" y1="18074.1" y2="18074.1" gradientUnits="userSpaceOnUse"><stop offset=".24" stop-color="#C3D939"/><stop offset="1" stop-color="#80C342"/></linearGradient><clipPath id="clip0"><rect width="802" height="123" fill="#fff"/></clipPath></defs></svg>